# AST/ASF file generated using VICON BodyLanguage
# -----------------------------------------------
:version 1.10
:name VICON
:units
  mass 1.0
  length 0.45
  angle deg
:documentation
   .ast/.asf automatically generated from VICON data using
   VICON BodyBuilder and BodyLanguage model FoxedUp or BRILLIANT.MOD
:root
   order TX TY TZ RX RY RZ
   axis XYZ
   position 0 0 0  
   orientation 0 0 0 
:bonedata
  begin
     id 1 
     name lhipjoint
     direction 0.440178 -0.822639 0.359871 
     length 2.53113 
     axis 0 0 0  XYZ
  end
  begin
     id 2 
     name lfemur
     direction 0.34202 -0.939693 0  
     length 7.88132  
     axis 0 0 20  XYZ
    dof rx ry rz
    limits (-160.0 20.0)
           (-70.0 70.0)
           (-60.0 70.0)
  end
  begin
     id 3 
     name ltibia
     direction 0.34202 -0.939693 0   
     length 8.43783   
     axis 0 0 20   XYZ
    dof rx
    limits (-10.0 170.0)
  end
  begin
     id 4 
     name lfoot
     direction 0.0886351 -0.243523 0.965837   
     length 2.63414   
     axis -90 7.62852e-016 20   XYZ
    dof rx rz
    limits (-45.0 90.0)
           (-70.0 20.0)
  end
  begin
     id 5 
     name ltoes
     direction 1.53703e-011 -4.21717e-011 1   
     length 1.31427   
     axis -90 7.62852e-016 20   XYZ
    dof rx
    limits (-90.0 20.0)
  end
  begin
     id 6 
     name rhipjoint
     direction -0.399779 -0.839773 0.367367   
     length 2.47948  
     axis 0 0 0  XYZ 
  end
  begin
     id 7 
     name rfemur
     direction -0.34202 -0.939693 0   
     length 7.74806   
     axis 0 0 -20   XYZ
    dof rx ry rz
    limits (-160.0 20.0)
           (-70.0 70.0)
           (-70.0 60.0)
  end
  begin
     id 8 
     name rtibia
     direction -0.34202 -0.939693 0   
     length 8.74432   
     axis 0 0 -20   XYZ
    dof rx
    limits (-10.0 170.0)
 end
 begin
     id 9 
     name rfoot
     direction -0.108514 -0.298139 0.948334   
     length 2.66102  
     axis -90 -7.62852e-016 -20   XYZ
    dof rx rz
    limits (-45.0 90.0)
           (-20.0 70.0)
  end
  begin
     id 10 
     name rtoes
     direction -1.53392e-011 -4.22077e-011 1   
     length 1.31983   
     axis -90 -7.62852e-016 -20   XYZ
    dof rx
    limits (-90.0 20.0)
  end
  begin
     id 11 
     name lowerback
     direction 0.0113257 0.999866 0.0118602   
     length 2.58694   
     axis 0 0 0   XYZ
    dof rx ry rz
    limits (-20.0 45.0)
           (-30.0 30.0)
           (-30.0 30.0)
  end
  begin
     id 12 
     name upperback
     direction -0.0164747 0.995193 -0.0965375   
     length 2.52368   
     axis 0 0 0   XYZ
    dof rx ry rz
    limits (-20.0 45.0)
           (-30.0 30.0)
           (-30.0 30.0)
  end
  begin
     id 13 
     name thorax
     direction -0.0194301 0.99433 -0.104552   
     length 2.56099   
     axis 0 0 0   XYZ
    dof rx ry rz
    limits (-20.0 45.0)
           (-30.0 30.0)
           (-30.0 30.0)
  end
  begin
     id 14 
     name lowerneck
     direction 0.0148543 0.995587 -0.092657   
     length 1.71582   
     axis 0 0 0   XYZ
    dof rx ry rz
    limits (-20.0 45.0)
           (-30.0 30.0)
           (-30.0 30.0)
  end
  begin
     id 15 
     name upperneck
     direction -0.0135467 0.993656 -0.111639   
     length 1.68937   
     axis 0 0 0   XYZ
    dof rx ry rz
    limits (-20.0 45.0)
           (-30.0 30.0)
           (-30.0 30.0)
  end
  begin
     id 16
     name head
     direction -0.00615349 0.999547 -0.029448  
     length 1.7462  
     axis 0 0 0   XYZ
    dof rx ry rz
    limits (-20.0 45.0)
           (-30.0 30.0)
           (-30.0 30.0)
  end
  begin
     id 17 
     name lclavicle
     direction 0.988267 0.149885 0.0293713  
     length 4.47222  
     axis 0 0 0   XYZ
    dof ry rz
    limits (-20.0 10.0)
           (0.0 20.0)
  end
  begin
     id 18 
     name lhumerus
     direction 1 -4.48986e-011 -1.14833e-027   
     length 5.37148   
     axis 180 -30 -90   XYZ
    dof rx ry rz
    limits (-60.0 90.0)
           (-90.0 90.0)
           (-90.0 90.0)
  end
  begin
     id 19
     name lradius
     direction 0.999998 0.00170963 -0.000987055   
     length 3.94212   
     axis 180 -30 -90   XYZ
    dof rx
    limits (-10.0 170.0)
  end
  begin
     id 20
     name lwrist
     direction 0.999998 7.53149e-005 -0.00194706   
     length 1.97106   
     axis 4.65056e-015 90 90   XYZ
    dof ry
    limits (-180.0 0.0)
 end
  begin
     id 21 
     name lhand
     direction 1 -4.48973e-011 -1.31746e-026   
     length 1.17917   
     axis 8.4065e-015 90 90   XYZ
    dof rx rz
    limits (-90.0 90.0)
           (-45.0 45.0)
  end
  begin
     id 22 
     name lfingers
     direction 1 -4.49107e-011 -2.63492e-026   
     length 0.950679   
     axis 1.6813e-014 90 90   XYZ
    dof rx
    limits (0.0 90.0)
  end
  begin
     id 23
     name lthumb
     direction 0.707107 -6.35048e-011 0.707107   
     length 1.36499   
     axis -90 45 2.85299e-015   XYZ
    dof rx rz
    limits (-45.0 45.0)
           (-45.0 45.0)
  end
  begin
     id 24 
     name rclavicle
     direction -0.996699 0.0642895 -0.0495725   
     length 4.62611  
     axis 0 0 0   XYZ 
    dof ry rz
    limits (-10.0 20.0)
           (-20.0 0.0)
  end
  begin
     id 25 
     name rhumerus
     direction -1 -4.48919e-011 -2.41059e-027  
     length 5.4981   
     axis 180 30 90   XYZ
    dof rx ry rz
    limits (-90.0 60.0)
           (-90.0 90.0)
           (-90.0 90.0)
  end
  begin
     id 26 
     name rradius
     direction -0.999999 0.00118101 -0.000681858   
     length 3.48381   
     axis 180 30 90   XYZ
    dof rx
    limits (-10.0 170.0)
  end
  begin
     id 27 
     name rwrist
     direction -0.999999 0.000321823 -0.00132288   
     length 1.7419   
     axis 4.65056e-015 -90 -90   XYZ
    dof ry
    limits (-180.0 0.0)
  end
  begin
     id 28
     name rhand
     direction -1 -4.49022e-011 -1.31746e-026   
     length 1.34932   
     axis 8.4065e-015 -90 -90   XYZ
    dof rx rz
    limits (-90.0 90.0)
           (-45.0 45.0)
  end
  begin
     id 29
     name rfingers
     direction -1 -4.49178e-011 -2.63492e-026   
     length 1.08785   
     axis 1.6813e-014 -90 -90   XYZ
    dof rx
    limits (0.0 90.0)
  end
  begin
     id 30
     name rthumb
     direction -0.707107 -6.34713e-011 0.707107   
     length 1.56195   
     axis -90 -45 -2.85299e-015   XYZ
    dof rx rz
    limits (-45.0 45.0)
           (-45.0 45.0)
  end
:hierarchy
  begin
    root lhipjoint rhipjoint lowerback
    lhipjoint lfemur
    lfemur ltibia
    ltibia lfoot
    lfoot ltoes
    rhipjoint rfemur
    rfemur rtibia
    rtibia rfoot
    rfoot rtoes
    lowerback upperback
    upperback thorax
    thorax lowerneck lclavicle rclavicle
    lowerneck upperneck
    upperneck head
    lclavicle lhumerus
    lhumerus lradius
    lradius lwrist
    lwrist lhand lthumb
    lhand lfingers
    rclavicle rhumerus
    rhumerus rradius
    rradius rwrist
    rwrist rhand rthumb
    rhand rfingers
  end

#!OML:ASF X:\für Bonn\!DataBase\2005_08_10_Bjorn_Final\c3d\bjorn.ASF
:FULLY-SPECIFIED
:DEGREES
16
root 4.7253 15.1974 -25.4677 10.3087 -5.88354 0.120742
lowerback 16.218 -0.201764 -0.530682
upperback 10.1248 -0.37365 -0.933617
thorax 1.67224 -0.197907 -0.626974
lowerneck -12.1625 1.15395 1.24187
upperneck -26.4539 1.138 -1.5093
head -6.15033 0.49875 -0.71753
rclavicle -1.39149e-014 5.76476e-015
rhumerus -40.2303 -39.3315 -72.7011
rradius 35.3656
rwrist -158.867
rhand 2.8466e-013 -2.54444e-014
rfingers 7.12502
rthumb 25.5904 -28.3008
lclavicle -1.39149e-014 5.76476e-015
lhumerus -25.7075 4.81547 89.4902
lradius 32.276
lwrist 9.36126
lhand 1.31198e-014 3.40717e-013
lfingers 7.12502
lthumb 25.5904 28.3008
rfemur -53.1788 -3.20208 17.4326
rtibia 94.8626
rfoot -35.5697 17.9816
rtoes -10.4651
lfemur -55.3489 3.46059 -18.061
ltibia 97.0059
lfoot -30.2746 2.31567
ltoes -36.3637
17
root 4.73526 15.2482 -25.3531 10.7796 -6.05317 0.136624
lowerback 15.9556 -0.148998 -0.596277
upperback 10.0036 -0.311878 -0.992713
thorax 1.67882 -0.168239 -0.660993
lowerneck -12.4092 1.1302 1.29074
upperneck -26.3223 1.0953 -1.5221
head -6.06992 0.47315 -0.727218
rclavicle 1.39149e-015 4.57205e-015
rhumerus -38.3418 -36.5193 -75.274
rradius 37.6371
rwrist -161.133
rhand -7.79236e-014 3.9916e-013
rfingers 7.12502
rthumb 25.5904 -28.3008
lclavicle 1.39149e-015 4.57205e-015
lhumerus -25.9635 3.17579 89.5378
lradius 35.2717
lwrist 10.7846
lhand -4.42296e-014 -3.88624e-013
lfingers 7.12502
lthumb 25.5904 28.3008
rfemur -52.8987 -3.13203 17.3339
rtibia 94.3169
rfoot -35.5791 18.1823
rtoes -9.83444
lfemur -54.9601 3.27777 -18.1445
ltibia 96.438
lfoot -30.5193 2.36602
ltoes -36.0742
18
root 4.74522 15.3082 -25.2343 11.2206 -6.26204 0.151494
lowerback 15.6299 -0.0866529 -0.735477
upperback 9.88285 -0.245347 -1.01181
thorax 1.72004 -0.14085 -0.612099
lowerneck -12.5701 1.11765 1.2864
upperneck -26.1855 1.07337 -1.53166
head -6.00077 0.462592 -0.727475
rclavicle -7.15625e-015 -4.57205e-015
rhumerus -36.6751 -33.1806 -77.6095
rradius 40.497
rwrist -163.585
rhand -1.08457e-012 -7.15625e-014
rfingers 7.12502
rthumb 25.5904 -28.3008
lclavicle -7.15625e-015 -4.57205e-015
lhumerus -26.1865 1.76343 89.5288
lradius 38.4671
lwrist 11.8818
lhand 1.57785e-013 8.57159e-013
lfingers 7.12502
lthumb 25.5904 28.3008
rfemur -52.512 -3.0157 17.2164
rtibia 93.6632
rfoot -35.6016 18.3305
rtoes -9.70627
lfemur -54.4542 3.15418 -18.2581
ltibia 95.7618
lfoot -30.7472 2.61225
ltoes -36.1896
19
root 4.75645 15.3736 -25.1137 11.6629 -6.48731 0.194927
lowerback 15.2474 -0.0174574 -0.862132
upperback 9.7468 -0.166726 -1.0687
thorax 1.77491 -0.105604 -0.610997
lowerneck -12.7707 1.11275 1.37237
upperneck -25.9293 1.04902 -1.58053
head -5.88555 0.445045 -0.754934
rclavicle -1.07344e-014 7.7526e-015
rhumerus -35.312 -29.7887 -79.5653
rradius 43.7529
rwrist -166.21
rhand -5.88403e-013 -7.52201e-013
rfingers 7.12502
rthumb 25.5904 -28.3008
lclavicle -1.07344e-014 7.7526e-015
lhumerus -26.3173 0.299268 89.4018
lradius 41.8019
lwrist 12.7962
lhand -2.80187e-013 -9.00097e-013
lfingers 7.12502
lthumb 25.5904 28.3008
rfemur -52.0885 -2.92913 17.0475
rtibia 92.9228
rfoot -35.5816 18.4935
rtoes -9.76557
lfemur -53.932 3.03433 -18.4268
ltibia 95.02
lfoot -30.9555 2.96721
ltoes -36.4141
